<svg width="547" height="398" viewBox="0 0 547 398" fill="none" xmlns="http://www.w3.org/2000/svg">
<g clip-path="url(#clip0_50_2)">
<path d="M318.627 70.1628C328.878 70.1628 337.189 61.8486 337.189 51.5926C337.189 41.3366 328.878 33.0225 318.627 33.0225C308.375 33.0225 300.064 41.3366 300.064 51.5926C300.064 61.8486 308.375 70.1628 318.627 70.1628Z" fill="#161616"/>
<path d="M462.621 345.765C490.212 324.741 503.391 289.412 495.141 255.711C494.936 254.873 494.719 254.038 494.491 253.204C489.022 233.2 475.49 214.187 455.769 207.795C439.209 202.428 421.134 206.555 403.858 204.421C369.945 200.231 343.653 172.78 325.153 144.039C306.654 115.297 292.436 83.1253 267.854 59.3807C227.334 20.2417 161.236 11.815 110.997 37.2916C60.7585 62.7682 28.757 119.29 30.1218 175.621C31.4866 231.953 64.9141 285.809 113.459 314.384C131.293 324.881 151.919 332.317 172.446 329.715C190.257 327.457 206.441 317.883 224.168 315.04C252.04 310.571 279.734 323.178 303.84 337.869C327.947 352.56 351.233 369.973 378.627 376.783C405.226 383.396 438.18 364.388 462.621 345.765Z" fill="#161616"/>
<path d="M422.98 38.4745C422.375 38.0711 421.763 37.6886 421.158 37.2991C403.675 26.1127 384.935 17.025 365.327 10.2237L360.78 72.9709H331.957V1.06407C330.142 0.688505 328.314 0.333805 326.486 -3.05176e-05V72.9709H292.233C273.376 72.9709 255.292 65.4771 241.959 52.138C228.625 38.799 221.134 20.7074 221.134 1.8431C219.299 2.23953 217.478 2.66372 215.656 3.11579V72.9709H187.758L183.427 13.1378C163.276 20.8691 144.146 31.0361 126.462 43.4125C126.156 43.6212 125.85 43.8368 125.551 44.0454C124.015 45.1234 122.499 46.2223 120.99 47.3351V286.716H203.212L201.759 266.582L193.764 156.033H354.766L346.772 266.582L345.319 286.716H426.63V40.8948C425.42 40.0742 424.203 39.2674 422.98 38.4745ZM215.656 137.777H192.443L188.154 78.4513H215.656V137.777ZM326.486 137.777H287.499V136.601C287.499 136.036 287.387 135.477 287.171 134.955C286.955 134.433 286.638 133.959 286.238 133.56C285.838 133.16 285.364 132.844 284.842 132.628C284.32 132.413 283.76 132.302 283.195 132.303H266.246C265.682 132.303 265.123 132.414 264.602 132.63C264.08 132.846 263.607 133.162 263.208 133.562C262.809 133.961 262.492 134.435 262.276 134.956C262.061 135.478 261.95 136.037 261.95 136.601V137.777H221.135V78.4513H326.486V137.777ZM331.957 137.777V78.4513H360.384L356.094 137.777H331.957Z" fill="#666666"/>
<path d="M-2.28882e-05 302.045C6.03939 309.204 12.5717 315.932 19.5491 322.18L527.451 322.875C534.428 316.628 540.961 309.9 547 302.741L-2.28882e-05 302.045Z" fill="#949494"/>
<path d="M344.425 237.574V297.18C344.425 297.94 344.727 298.668 345.264 299.205C345.801 299.742 346.529 300.044 347.288 300.045H435.582C436.341 300.044 437.069 299.742 437.606 299.205C438.143 298.668 438.445 297.94 438.446 297.18V237.574C438.444 236.815 438.142 236.087 437.605 235.551C437.068 235.015 436.341 234.713 435.582 234.712H347.288C346.53 234.713 345.802 235.015 345.265 235.551C344.729 236.087 344.426 236.815 344.425 237.574V237.574Z" fill="#949494"/>
<path d="M346.496 238.315V296.445C346.497 296.851 346.658 297.24 346.945 297.527C347.232 297.814 347.621 297.975 348.026 297.976H434.847C435.253 297.975 435.642 297.814 435.929 297.527C436.215 297.24 436.377 296.851 436.378 296.445V238.315C436.378 237.909 436.216 237.519 435.93 237.232C435.643 236.944 435.253 236.782 434.847 236.781H348.026C347.62 236.782 347.231 236.944 346.944 237.232C346.657 237.519 346.496 237.909 346.496 238.315V238.315Z" fill="#E9AB2F"/>
<path d="M342.578 308.805C342.74 309.008 342.945 309.171 343.179 309.283C343.413 309.395 343.67 309.453 343.929 309.451H438.471C438.73 309.451 438.985 309.393 439.218 309.282C439.452 309.17 439.657 309.008 439.82 308.807C439.983 308.607 440.099 308.372 440.16 308.12C440.221 307.869 440.225 307.607 440.172 307.354L438.704 300.38C438.643 300.096 438.512 299.831 438.323 299.61C438.134 299.39 437.893 299.22 437.621 299.116C437.424 299.039 437.215 298.999 437.004 298.999H345.391C345.18 298.999 344.97 299.039 344.774 299.116C344.502 299.22 344.26 299.39 344.071 299.61C343.882 299.831 343.751 300.096 343.69 300.38L342.223 307.354C342.171 307.607 342.175 307.869 342.237 308.12C342.298 308.37 342.415 308.605 342.578 308.805V308.805Z" fill="#2F2E41"/>
<path d="M433.76 302.003H435.993C436.18 302.003 436.332 301.851 436.332 301.664V300.595C436.332 300.407 436.18 300.255 435.993 300.255H433.76C433.572 300.255 433.42 300.407 433.42 300.595V301.664C433.42 301.851 433.572 302.003 433.76 302.003Z" fill="#3F3D56"/>
<path d="M427.936 302.003H430.169C430.356 302.003 430.508 301.851 430.508 301.664V300.595C430.508 300.407 430.356 300.255 430.169 300.255H427.936C427.749 300.255 427.597 300.407 427.597 300.595V301.664C427.597 301.851 427.749 302.003 427.936 302.003Z" fill="#3F3D56"/>
<path d="M422.112 302.003H424.345C424.533 302.003 424.685 301.851 424.685 301.664V300.595C424.685 300.407 424.533 300.255 424.345 300.255H422.112C421.925 300.255 421.773 300.407 421.773 300.595V301.664C421.773 301.851 421.925 302.003 422.112 302.003Z" fill="#3F3D56"/>
<path d="M416.289 302.003H418.522C418.709 302.003 418.861 301.851 418.861 301.664V300.595C418.861 300.407 418.709 300.255 418.522 300.255H416.289C416.101 300.255 415.949 300.407 415.949 300.595V301.664C415.949 301.851 416.101 302.003 416.289 302.003Z" fill="#3F3D56"/>
<path d="M410.465 302.003H412.698C412.885 302.003 413.037 301.851 413.037 301.664V300.595C413.037 300.407 412.885 300.255 412.698 300.255H410.465C410.277 300.255 410.126 300.407 410.126 300.595V301.664C410.126 301.851 410.277 302.003 410.465 302.003Z" fill="#3F3D56"/>
<path d="M404.641 302.003H406.874C407.062 302.003 407.214 301.851 407.214 301.664V300.595C407.214 300.407 407.062 300.255 406.874 300.255H404.641C404.454 300.255 404.302 300.407 404.302 300.595V301.664C404.302 301.851 404.454 302.003 404.641 302.003Z" fill="#3F3D56"/>
<path d="M398.817 302.003H401.051C401.238 302.003 401.39 301.851 401.39 301.664V300.595C401.39 300.407 401.238 300.255 401.051 300.255H398.817C398.63 300.255 398.478 300.407 398.478 300.595V301.664C398.478 301.851 398.63 302.003 398.817 302.003Z" fill="#3F3D56"/>
<path d="M392.994 302.003H395.227C395.414 302.003 395.566 301.851 395.566 301.664V300.595C395.566 300.407 395.414 300.255 395.227 300.255H392.994C392.806 300.255 392.654 300.407 392.654 300.595V301.664C392.654 301.851 392.806 302.003 392.994 302.003Z" fill="#3F3D56"/>
<path d="M387.17 302.003H389.403C389.591 302.003 389.742 301.851 389.742 301.664V300.595C389.742 300.407 389.591 300.255 389.403 300.255H387.17C386.983 300.255 386.831 300.407 386.831 300.595V301.664C386.831 301.851 386.983 302.003 387.17 302.003Z" fill="#3F3D56"/>
<path d="M381.346 302.003H383.579C383.767 302.003 383.919 301.851 383.919 301.664V300.595C383.919 300.407 383.767 300.255 383.579 300.255H381.346C381.159 300.255 381.007 300.407 381.007 300.595V301.664C381.007 301.851 381.159 302.003 381.346 302.003Z" fill="#3F3D56"/>
<path d="M375.523 302.003H377.756C377.943 302.003 378.095 301.851 378.095 301.664V300.595C378.095 300.407 377.943 300.255 377.756 300.255H375.523C375.335 300.255 375.183 300.407 375.183 300.595V301.664C375.183 301.851 375.335 302.003 375.523 302.003Z" fill="#3F3D56"/>
<path d="M369.699 302.003H371.932C372.119 302.003 372.271 301.851 372.271 301.664V300.595C372.271 300.407 372.119 300.255 371.932 300.255H369.699C369.511 300.255 369.36 300.407 369.36 300.595V301.664C369.36 301.851 369.511 302.003 369.699 302.003Z" fill="#3F3D56"/>
<path d="M363.875 302.003H366.108C366.296 302.003 366.448 301.851 366.448 301.664V300.595C366.448 300.407 366.296 300.255 366.108 300.255H363.875C363.688 300.255 363.536 300.407 363.536 300.595V301.664C363.536 301.851 363.688 302.003 363.875 302.003Z" fill="#3F3D56"/>
<path d="M358.052 302.003H360.285C360.472 302.003 360.624 301.851 360.624 301.664V300.595C360.624 300.407 360.472 300.255 360.285 300.255H358.052C357.864 300.255 357.712 300.407 357.712 300.595V301.664C357.712 301.851 357.864 302.003 358.052 302.003Z" fill="#3F3D56"/>
<path d="M352.228 302.003H354.461C354.648 302.003 354.8 301.851 354.8 301.664V300.595C354.8 300.407 354.648 300.255 354.461 300.255H352.228C352.04 300.255 351.888 300.407 351.888 300.595V301.664C351.888 301.851 352.04 302.003 352.228 302.003Z" fill="#3F3D56"/>
<path d="M346.404 302.003H348.637C348.825 302.003 348.977 301.851 348.977 301.664V300.595C348.977 300.407 348.825 300.255 348.637 300.255H346.404C346.217 300.255 346.065 300.407 346.065 300.595V301.664C346.065 301.851 346.217 302.003 346.404 302.003Z" fill="#3F3D56"/>
<path d="M433.829 304.916H436.062C436.249 304.916 436.401 304.764 436.401 304.577V303.508C436.401 303.32 436.249 303.168 436.062 303.168H433.829C433.641 303.168 433.489 303.32 433.489 303.508V304.577C433.489 304.764 433.641 304.916 433.829 304.916Z" fill="#3F3D56"/>
<path d="M428.005 304.916H430.238C430.425 304.916 430.577 304.764 430.577 304.577V303.508C430.577 303.32 430.425 303.168 430.238 303.168H428.005C427.817 303.168 427.665 303.32 427.665 303.508V304.577C427.665 304.764 427.817 304.916 428.005 304.916Z" fill="#3F3D56"/>
<path d="M422.181 304.916H424.414C424.602 304.916 424.754 304.764 424.754 304.577V303.508C424.754 303.32 424.602 303.168 424.414 303.168H422.181C421.994 303.168 421.842 303.32 421.842 303.508V304.577C421.842 304.764 421.994 304.916 422.181 304.916Z" fill="#3F3D56"/>
<path d="M416.357 304.916H418.59C418.778 304.916 418.93 304.764 418.93 304.577V303.508C418.93 303.32 418.778 303.168 418.59 303.168H416.357C416.17 303.168 416.018 303.32 416.018 303.508V304.577C416.018 304.764 416.17 304.916 416.357 304.916Z" fill="#3F3D56"/>
<path d="M410.534 304.916H412.767C412.954 304.916 413.106 304.764 413.106 304.577V303.508C413.106 303.32 412.954 303.168 412.767 303.168H410.534C410.346 303.168 410.194 303.32 410.194 303.508V304.577C410.194 304.764 410.346 304.916 410.534 304.916Z" fill="#3F3D56"/>
<path d="M404.71 304.916H406.943C407.13 304.916 407.282 304.764 407.282 304.577V303.508C407.282 303.32 407.13 303.168 406.943 303.168H404.71C404.522 303.168 404.371 303.32 404.371 303.508V304.577C404.371 304.764 404.522 304.916 404.71 304.916Z" fill="#3F3D56"/>
<path d="M398.886 304.916H401.119C401.307 304.916 401.459 304.764 401.459 304.577V303.508C401.459 303.32 401.307 303.168 401.119 303.168H398.886C398.699 303.168 398.547 303.32 398.547 303.508V304.577C398.547 304.764 398.699 304.916 398.886 304.916Z" fill="#3F3D56"/>
<path d="M393.063 304.916H395.296C395.483 304.916 395.635 304.764 395.635 304.577V303.508C395.635 303.32 395.483 303.168 395.296 303.168H393.063C392.875 303.168 392.723 303.32 392.723 303.508V304.577C392.723 304.764 392.875 304.916 393.063 304.916Z" fill="#3F3D56"/>
<path d="M387.239 304.916H389.472C389.659 304.916 389.811 304.764 389.811 304.577V303.508C389.811 303.32 389.659 303.168 389.472 303.168H387.239C387.051 303.168 386.899 303.32 386.899 303.508V304.577C386.899 304.764 387.051 304.916 387.239 304.916Z" fill="#3F3D56"/>
<path d="M381.415 304.916H383.648C383.836 304.916 383.988 304.764 383.988 304.577V303.508C383.988 303.32 383.836 303.168 383.648 303.168H381.415C381.228 303.168 381.076 303.32 381.076 303.508V304.577C381.076 304.764 381.228 304.916 381.415 304.916Z" fill="#3F3D56"/>
<path d="M375.591 304.916H377.825C378.012 304.916 378.164 304.764 378.164 304.577V303.508C378.164 303.32 378.012 303.168 377.825 303.168H375.591C375.404 303.168 375.252 303.32 375.252 303.508V304.577C375.252 304.764 375.404 304.916 375.591 304.916Z" fill="#3F3D56"/>
<path d="M369.768 304.916H372.001C372.188 304.916 372.34 304.764 372.34 304.577V303.508C372.34 303.32 372.188 303.168 372.001 303.168H369.768C369.58 303.168 369.428 303.32 369.428 303.508V304.577C369.428 304.764 369.58 304.916 369.768 304.916Z" fill="#3F3D56"/>
<path d="M363.944 304.916H366.177C366.365 304.916 366.516 304.764 366.516 304.577V303.508C366.516 303.32 366.365 303.168 366.177 303.168H363.944C363.757 303.168 363.605 303.32 363.605 303.508V304.577C363.605 304.764 363.757 304.916 363.944 304.916Z" fill="#3F3D56"/>
<path d="M358.12 304.916H360.353C360.541 304.916 360.693 304.764 360.693 304.577V303.508C360.693 303.32 360.541 303.168 360.353 303.168H358.12C357.933 303.168 357.781 303.32 357.781 303.508V304.577C357.781 304.764 357.933 304.916 358.12 304.916Z" fill="#3F3D56"/>
<path d="M352.297 304.916H354.53C354.717 304.916 354.869 304.764 354.869 304.577V303.508C354.869 303.32 354.717 303.168 354.53 303.168H352.297C352.109 303.168 351.957 303.32 351.957 303.508V304.577C351.957 304.764 352.109 304.916 352.297 304.916Z" fill="#3F3D56"/>
<path d="M346.473 304.916H348.706C348.893 304.916 349.045 304.764 349.045 304.577V303.508C349.045 303.32 348.893 303.168 348.706 303.168H346.473C346.285 303.168 346.133 303.32 346.133 303.508V304.577C346.133 304.764 346.285 304.916 346.473 304.916Z" fill="#3F3D56"/>
<path d="M385.492 308.412H408.108C408.295 308.412 408.447 308.26 408.447 308.072V307.004C408.447 306.816 408.295 306.664 408.108 306.664H385.492C385.304 306.664 385.152 306.816 385.152 307.004V308.072C385.152 308.26 385.304 308.412 385.492 308.412Z" fill="#3F3D56"/>
<path d="M361.531 249.498H359.554C358.954 249.498 358.469 249.984 358.469 250.584C358.469 251.184 358.954 251.67 359.554 251.67H361.531C362.13 251.67 362.616 251.184 362.616 250.584C362.616 249.984 362.13 249.498 361.531 249.498Z" fill="white"/>
<path d="M384.141 249.498H382.164C381.565 249.498 381.079 249.984 381.079 250.584C381.079 251.184 381.565 251.67 382.164 251.67H384.141C384.74 251.67 385.226 251.184 385.226 250.584C385.226 249.984 384.74 249.498 384.141 249.498Z" fill="white"/>
<path d="M390.547 249.498H388.57C387.971 249.498 387.485 249.984 387.485 250.584C387.485 251.184 387.971 251.67 388.57 251.67H390.547C391.146 251.67 391.632 251.184 391.632 250.584C391.632 249.984 391.146 249.498 390.547 249.498Z" fill="white"/>
<path d="M377.991 249.317H365.704C365.104 249.317 364.619 249.803 364.619 250.403C364.619 251.003 365.104 251.489 365.704 251.489H377.991C378.59 251.489 379.076 251.003 379.076 250.403C379.076 249.803 378.59 249.317 377.991 249.317Z" fill="white"/>
<path d="M408.138 249.317H395.851C395.251 249.317 394.765 249.803 394.765 250.403C394.765 251.003 395.251 251.489 395.851 251.489H408.138C408.737 251.489 409.223 251.003 409.223 250.403C409.223 249.803 408.737 249.317 408.138 249.317Z" fill="white"/>
<path d="M367.56 254.399H365.583C364.984 254.399 364.498 254.885 364.498 255.485C364.498 256.085 364.984 256.571 365.583 256.571H367.56C368.159 256.571 368.645 256.085 368.645 255.485C368.645 254.885 368.159 254.399 367.56 254.399Z" fill="white"/>
<path d="M390.17 254.399H388.193C387.594 254.399 387.108 254.885 387.108 255.485C387.108 256.085 387.594 256.571 388.193 256.571H390.17C390.77 256.571 391.256 256.085 391.256 255.485C391.256 254.885 390.77 254.399 390.17 254.399Z" fill="white"/>
<path d="M396.576 254.399H394.599C394 254.399 393.514 254.885 393.514 255.485C393.514 256.085 394 256.571 394.599 256.571H396.576C397.176 256.571 397.662 256.085 397.662 255.485C397.662 254.885 397.176 254.399 396.576 254.399Z" fill="white"/>
<path d="M384.02 254.218H371.733C371.134 254.218 370.648 254.704 370.648 255.304C370.648 255.904 371.134 256.39 371.733 256.39H384.02C384.62 256.39 385.105 255.904 385.105 255.304C385.105 254.704 384.62 254.218 384.02 254.218Z" fill="white"/>
<path d="M414.167 254.218H401.88C401.281 254.218 400.795 254.704 400.795 255.304C400.795 255.904 401.281 256.39 401.88 256.39H414.167C414.766 256.39 415.252 255.904 415.252 255.304C415.252 254.704 414.766 254.218 414.167 254.218Z" fill="white"/>
<path d="M373.589 259.3H371.612C371.013 259.3 370.527 259.786 370.527 260.386C370.527 260.985 371.013 261.472 371.612 261.472H373.589C374.189 261.472 374.675 260.985 374.675 260.386C374.675 259.786 374.189 259.3 373.589 259.3Z" fill="white"/>
<path d="M396.2 259.3H394.223C393.623 259.3 393.137 259.786 393.137 260.386C393.137 260.985 393.623 261.472 394.223 261.472H396.2C396.799 261.472 397.285 260.985 397.285 260.386C397.285 259.786 396.799 259.3 396.2 259.3Z" fill="white"/>
<path d="M402.606 259.3H400.629C400.029 259.3 399.544 259.786 399.544 260.386C399.544 260.985 400.029 261.472 400.629 261.472H402.606C403.205 261.472 403.691 260.985 403.691 260.386C403.691 259.786 403.205 259.3 402.606 259.3Z" fill="white"/>
<path d="M390.05 259.119H377.763C377.163 259.119 376.677 259.605 376.677 260.205C376.677 260.804 377.163 261.29 377.763 261.29H390.05C390.649 261.29 391.135 260.804 391.135 260.205C391.135 259.605 390.649 259.119 390.05 259.119Z" fill="white"/>
<path d="M420.196 259.119H407.909C407.31 259.119 406.824 259.605 406.824 260.205C406.824 260.804 407.31 261.29 407.909 261.29H420.196C420.796 261.29 421.282 260.804 421.282 260.205C421.282 259.605 420.796 259.119 420.196 259.119Z" fill="white"/>
<path d="M379.619 264.201H377.642C377.043 264.201 376.557 264.687 376.557 265.287C376.557 265.886 377.043 266.372 377.642 266.372H379.619C380.218 266.372 380.704 265.886 380.704 265.287C380.704 264.687 380.218 264.201 379.619 264.201Z" fill="white"/>
<path d="M402.229 264.201H400.252C399.653 264.201 399.167 264.687 399.167 265.287C399.167 265.886 399.653 266.372 400.252 266.372H402.229C402.828 266.372 403.314 265.886 403.314 265.287C403.314 264.687 402.828 264.201 402.229 264.201Z" fill="white"/>
<path d="M408.635 264.201H406.658C406.059 264.201 405.573 264.687 405.573 265.287C405.573 265.886 406.059 266.372 406.658 266.372H408.635C409.235 266.372 409.72 265.886 409.72 265.287C409.72 264.687 409.235 264.201 408.635 264.201Z" fill="white"/>
<path d="M396.079 264.02H383.792C383.192 264.02 382.707 264.506 382.707 265.106C382.707 265.705 383.192 266.191 383.792 266.191H396.079C396.678 266.191 397.164 265.705 397.164 265.106C397.164 264.506 396.678 264.02 396.079 264.02Z" fill="white"/>
<path d="M384.141 283.689H382.164C381.565 283.689 381.079 284.175 381.079 284.775C381.079 285.374 381.565 285.86 382.164 285.86H384.141C384.74 285.86 385.226 285.374 385.226 284.775C385.226 284.175 384.74 283.689 384.141 283.689Z" fill="white"/>
<path d="M390.547 283.689H388.57C387.971 283.689 387.485 284.175 387.485 284.775C387.485 285.374 387.971 285.86 388.57 285.86H390.547C391.146 285.86 391.632 285.374 391.632 284.775C391.632 284.175 391.146 283.689 390.547 283.689Z" fill="white"/>
<path d="M408.138 283.87H395.851C395.251 283.87 394.765 284.356 394.765 284.956C394.765 285.555 395.251 286.041 395.851 286.041H408.138C408.737 286.041 409.223 285.555 409.223 284.956C409.223 284.356 408.737 283.87 408.138 283.87Z" fill="white"/>
<path d="M361.531 283.689H359.554C358.954 283.689 358.469 284.175 358.469 284.775C358.469 285.374 358.954 285.86 359.554 285.86H361.531C362.13 285.86 362.616 285.374 362.616 284.775C362.616 284.175 362.13 283.689 361.531 283.689Z" fill="white"/>
<path d="M377.991 283.87H365.704C365.104 283.87 364.619 284.356 364.619 284.956C364.619 285.555 365.104 286.041 365.704 286.041H377.991C378.59 286.041 379.076 285.555 379.076 284.956C379.076 284.356 378.59 283.87 377.991 283.87Z" fill="white"/>
<path d="M367.56 278.788H365.583C364.984 278.788 364.498 279.274 364.498 279.874C364.498 280.473 364.984 280.96 365.583 280.96H367.56C368.159 280.96 368.645 280.473 368.645 279.874C368.645 279.274 368.159 278.788 367.56 278.788Z" fill="white"/>
<path d="M390.17 278.788H388.193C387.594 278.788 387.108 279.274 387.108 279.874C387.108 280.473 387.594 280.96 388.193 280.96H390.17C390.77 280.96 391.256 280.473 391.256 279.874C391.256 279.274 390.77 278.788 390.17 278.788Z" fill="white"/>
<path d="M396.576 278.788H394.599C394 278.788 393.514 279.274 393.514 279.874C393.514 280.473 394 280.96 394.599 280.96H396.576C397.176 280.96 397.662 280.473 397.662 279.874C397.662 279.274 397.176 278.788 396.576 278.788Z" fill="white"/>
<path d="M384.02 278.969H371.733C371.134 278.969 370.648 279.455 370.648 280.055C370.648 280.654 371.134 281.141 371.733 281.141H384.02C384.62 281.141 385.105 280.654 385.105 280.055C385.105 279.455 384.62 278.969 384.02 278.969Z" fill="white"/>
<path d="M373.589 273.887H371.612C371.013 273.887 370.527 274.373 370.527 274.973C370.527 275.573 371.013 276.059 371.612 276.059H373.589C374.189 276.059 374.675 275.573 374.675 274.973C374.675 274.373 374.189 273.887 373.589 273.887Z" fill="white"/>
<path d="M396.2 273.887H394.223C393.623 273.887 393.137 274.373 393.137 274.973C393.137 275.573 393.623 276.059 394.223 276.059H396.2C396.799 276.059 397.285 275.573 397.285 274.973C397.285 274.373 396.799 273.887 396.2 273.887Z" fill="white"/>
<path d="M402.606 273.887H400.629C400.029 273.887 399.544 274.373 399.544 274.973C399.544 275.573 400.029 276.059 400.629 276.059H402.606C403.205 276.059 403.691 275.573 403.691 274.973C403.691 274.373 403.205 273.887 402.606 273.887Z" fill="white"/>
<path d="M390.05 274.068H377.763C377.163 274.068 376.677 274.554 376.677 275.154C376.677 275.754 377.163 276.24 377.763 276.24H390.05C390.649 276.24 391.135 275.754 391.135 275.154C391.135 274.554 390.649 274.068 390.05 274.068Z" fill="white"/>
<path d="M379.619 268.986H377.642C377.043 268.986 376.557 269.472 376.557 270.072C376.557 270.672 377.043 271.158 377.642 271.158H379.619C380.218 271.158 380.704 270.672 380.704 270.072C380.704 269.472 380.218 268.986 379.619 268.986Z" fill="white"/>
<path d="M402.229 268.986H400.252C399.653 268.986 399.167 269.472 399.167 270.072C399.167 270.672 399.653 271.158 400.252 271.158H402.229C402.828 271.158 403.314 270.672 403.314 270.072C403.314 269.472 402.828 268.986 402.229 268.986Z" fill="white"/>
<path d="M408.635 268.986H406.658C406.059 268.986 405.573 269.472 405.573 270.072C405.573 270.672 406.059 271.158 406.658 271.158H408.635C409.235 271.158 409.72 270.672 409.72 270.072C409.72 269.472 409.235 268.986 408.635 268.986Z" fill="white"/>
<path d="M396.079 269.167H383.792C383.192 269.167 382.707 269.653 382.707 270.253C382.707 270.853 383.192 271.339 383.792 271.339H396.079C396.678 271.339 397.164 270.853 397.164 270.253C397.164 269.653 396.678 269.167 396.079 269.167Z" fill="white"/>
<path d="M351.02 341.125L341.74 326.449L370.87 303.218L382.894 289.892C384.456 288.16 386.445 286.87 388.662 286.148C390.879 285.427 393.246 285.3 395.528 285.781C397.809 286.261 399.924 287.333 401.662 288.887C403.4 290.442 404.7 292.426 405.431 294.641C406.515 297.922 406.282 301.497 404.781 304.61C403.28 307.723 400.629 310.131 397.387 311.326L378.374 318.333L351.02 341.125Z" fill="#FFB6B6"/>
<path d="M133.264 234.715V306.044H183.214V234.715C183.215 234.202 183.051 233.702 182.747 233.289C182.443 232.876 182.015 232.571 181.525 232.42C181.294 232.343 181.052 232.306 180.809 232.308H135.676C135.36 232.308 135.046 232.37 134.754 232.49C134.461 232.611 134.195 232.788 133.971 233.011C133.747 233.235 133.569 233.5 133.448 233.793C133.326 234.085 133.264 234.398 133.264 234.715V234.715ZM152.757 259.224C152.77 257.818 153.338 256.474 154.336 255.484C155.335 254.494 156.684 253.939 158.089 253.939C159.495 253.939 160.844 254.494 161.842 255.484C162.841 256.474 163.408 257.818 163.421 259.224V267.5C163.414 268.91 162.849 270.26 161.85 271.255C160.851 272.249 159.499 272.807 158.089 272.807C156.68 272.807 155.328 272.249 154.328 271.255C153.329 270.26 152.764 268.91 152.757 267.5V259.224Z" fill="#949494"/>
<path d="M133.111 303.763V310.642C133.112 310.998 133.253 311.339 133.504 311.592C133.756 311.845 134.096 311.988 134.452 311.991H182.025C182.382 311.989 182.723 311.846 182.974 311.593C183.226 311.34 183.367 310.998 183.367 310.642V303.763H133.111Z" fill="#3F3D56"/>
<path d="M54.6847 127.248V257.485C54.686 259.145 55.3456 260.736 56.5187 261.91C57.6918 263.083 59.2825 263.743 60.9415 263.745H253.861C255.52 263.743 257.11 263.083 258.283 261.91C259.456 260.736 260.116 259.145 260.117 257.485V127.248C260.113 125.589 259.453 124 258.28 122.828C257.107 121.656 255.518 120.997 253.861 120.995H60.9415C59.284 120.997 57.6948 121.656 56.5221 122.828C55.3493 124 54.6886 125.589 54.6847 127.248Z" fill="#949494"/>
<path d="M59.2105 128.868V255.879C59.212 256.765 59.5648 257.615 60.1916 258.242C60.8183 258.869 61.668 259.222 62.5544 259.224H252.255C253.141 259.222 253.991 258.869 254.617 258.242C255.244 257.615 255.597 256.765 255.599 255.879V128.868C255.598 127.98 255.246 127.129 254.619 126.5C253.993 125.872 253.142 125.518 252.255 125.516H62.5544C61.6669 125.518 60.8165 125.872 60.1896 126.5C59.5627 127.129 59.2106 127.98 59.2105 128.868Z" fill="#161616"/>
<path d="M94.4156 311.525C94.6086 311.767 94.8541 311.962 95.1334 312.096C95.4128 312.23 95.7188 312.298 96.0284 312.297H208.888C209.196 312.296 209.501 312.227 209.78 312.094C210.058 311.961 210.304 311.768 210.498 311.528C210.693 311.288 210.831 311.008 210.904 310.708C210.976 310.408 210.981 310.095 210.918 309.793L209.166 301.468C209.093 301.129 208.937 300.813 208.711 300.549C208.485 300.285 208.197 300.083 207.873 299.959C207.638 299.867 207.388 299.819 207.136 299.82H97.7734C97.5212 299.819 97.2713 299.867 97.0365 299.959C96.7122 300.082 96.424 300.285 96.1982 300.549C95.9723 300.813 95.816 301.129 95.7434 301.468L93.9915 309.793C93.9292 310.095 93.9349 310.407 94.0082 310.707C94.0816 311.006 94.2207 311.286 94.4156 311.525Z" fill="#949494"/>
<path d="M246.098 143.012H68.5965C68.412 143.008 68.2364 142.932 68.1074 142.8C67.9784 142.668 67.9061 142.491 67.9061 142.306C67.9061 142.121 67.9784 141.944 68.1074 141.812C68.2364 141.68 68.412 141.604 68.5965 141.6H246.098C246.283 141.604 246.458 141.68 246.587 141.812C246.716 141.944 246.789 142.121 246.789 142.306C246.789 142.491 246.716 142.668 246.587 142.8C246.458 142.932 246.283 143.008 246.098 143.012V143.012Z" fill="#E9AB2F"/>
<path d="M80.6793 137.994C82.9639 137.994 84.816 136.1 84.816 133.763C84.816 131.427 82.9639 129.533 80.6793 129.533C78.3946 129.533 76.5425 131.427 76.5425 133.763C76.5425 136.1 78.3946 137.994 80.6793 137.994Z" fill="#E9AB2F"/>
<path d="M94.9699 137.994C97.2546 137.994 99.1067 136.1 99.1067 133.763C99.1067 131.427 97.2546 129.533 94.9699 129.533C92.6852 129.533 90.8331 131.427 90.8331 133.763C90.8331 136.1 92.6852 137.994 94.9699 137.994Z" fill="#E9AB2F"/>
<path d="M109.261 137.994C111.545 137.994 113.397 136.1 113.397 133.763C113.397 131.427 111.545 129.533 109.261 129.533C106.976 129.533 105.124 131.427 105.124 133.763C105.124 136.1 106.976 137.994 109.261 137.994Z" fill="#E9AB2F"/>
<path d="M237.493 130.579H227.343C227.142 130.584 226.951 130.667 226.811 130.81C226.671 130.954 226.592 131.147 226.592 131.348C226.592 131.548 226.671 131.741 226.811 131.885C226.951 132.028 227.142 132.111 227.343 132.116H237.493C237.695 132.113 237.887 132.031 238.029 131.887C238.171 131.743 238.25 131.549 238.25 131.348C238.25 131.146 238.171 130.952 238.029 130.808C237.887 130.664 237.695 130.582 237.493 130.579Z" fill="#E9AB2F"/>
<path d="M237.493 133.465H227.343C227.142 133.47 226.951 133.553 226.811 133.696C226.67 133.84 226.591 134.033 226.591 134.234C226.591 134.435 226.67 134.628 226.811 134.771C226.951 134.915 227.142 134.998 227.343 135.002H237.493C237.695 135 237.888 134.918 238.03 134.774C238.172 134.63 238.252 134.436 238.252 134.234C238.252 134.032 238.172 133.837 238.03 133.694C237.888 133.55 237.695 133.468 237.493 133.465V133.465Z" fill="#E9AB2F"/>
<path d="M237.493 136.352H227.343C227.142 136.356 226.951 136.439 226.811 136.583C226.671 136.726 226.592 136.919 226.592 137.12C226.592 137.321 226.671 137.514 226.811 137.657C226.951 137.801 227.142 137.884 227.343 137.889H237.493C237.695 137.886 237.887 137.803 238.029 137.66C238.171 137.516 238.25 137.322 238.25 137.12C238.25 136.918 238.171 136.724 238.029 136.58C237.887 136.437 237.695 136.354 237.493 136.352V136.352Z" fill="#E9AB2F"/>
<path d="M482.19 306.782C482.497 307.674 483.078 308.446 483.85 308.987C484.622 309.529 485.546 309.811 486.489 309.794L504.906 309.32C505.856 309.301 506.774 308.976 507.523 308.392C508.273 307.808 508.813 306.998 509.064 306.081L511.67 278.201C512.595 278.62 513.601 278.827 514.616 278.806C515.498 278.784 516.367 278.589 517.173 278.23C517.979 277.872 518.707 277.359 519.315 276.72C519.923 276.08 520.399 275.327 520.716 274.504C521.033 273.68 521.184 272.803 521.162 271.92C521.14 271.038 520.945 270.169 520.587 269.363C520.229 268.556 519.716 267.828 519.076 267.22C518.437 266.612 517.685 266.136 516.862 265.819C516.039 265.502 515.161 265.35 514.279 265.372C513.874 265.37 513.469 265.413 513.072 265.497C512.641 265.03 512.116 264.659 511.533 264.407C510.949 264.155 510.319 264.028 509.684 264.035L481.354 264.767C481.119 264.775 480.885 264.804 480.655 264.853C480.034 264.969 479.445 265.217 478.927 265.58C478.409 265.943 477.976 266.412 477.655 266.957C477.334 267.501 477.133 268.108 477.066 268.737C476.999 269.366 477.068 270.001 477.267 270.601L482.19 306.782ZM512.205 276.308L514.059 269.664C514.27 268.896 514.275 268.087 514.073 267.317C514.163 267.317 514.243 267.274 514.333 267.274C515.604 267.247 516.834 267.727 517.753 268.606C518.672 269.486 519.205 270.694 519.235 271.966C519.265 273.238 518.789 274.47 517.912 275.392C517.035 276.314 515.829 276.85 514.558 276.883C513.736 276.909 512.922 276.71 512.205 276.308Z" fill="#949494"/>
<path d="M480.655 264.853C481.259 268.306 488.044 270.733 496.204 270.311C503.707 269.965 509.842 267.33 510.966 264.206C510.55 264.083 510.117 264.025 509.684 264.035L481.354 264.767C481.119 264.775 480.885 264.804 480.655 264.853V264.853Z" fill="#949494"/>
<path d="M497.699 291.461C497.737 291.452 497.772 291.436 497.804 291.415L501.804 288.796C501.852 288.765 501.892 288.722 501.919 288.671C501.947 288.62 501.961 288.563 501.961 288.506C501.961 288.448 501.947 288.391 501.919 288.34C501.892 288.289 501.852 288.246 501.804 288.215L497.647 285.491C497.609 285.465 497.566 285.448 497.521 285.439C497.476 285.431 497.43 285.431 497.385 285.44C497.34 285.449 497.298 285.467 497.26 285.493C497.222 285.519 497.19 285.552 497.165 285.59C497.139 285.628 497.122 285.671 497.114 285.716C497.105 285.761 497.106 285.807 497.115 285.852C497.125 285.897 497.143 285.939 497.169 285.977C497.194 286.015 497.227 286.047 497.266 286.072L500.979 288.505L497.424 290.833C497.355 290.878 497.304 290.946 497.281 291.025C497.257 291.104 497.263 291.189 497.296 291.264C497.329 291.34 497.387 291.401 497.461 291.437C497.535 291.473 497.619 291.482 497.699 291.461H497.699Z" fill="#E9AB2F"/>
<path d="M491.382 291.753C491.449 291.736 491.51 291.699 491.556 291.648C491.602 291.596 491.632 291.532 491.641 291.463C491.651 291.394 491.639 291.325 491.609 291.262C491.578 291.2 491.53 291.149 491.47 291.114L487.783 289L491.346 286.352C491.383 286.325 491.414 286.29 491.437 286.251C491.461 286.212 491.476 286.169 491.483 286.123C491.489 286.078 491.487 286.032 491.476 285.988C491.465 285.944 491.445 285.902 491.418 285.866C491.391 285.829 491.357 285.798 491.317 285.775C491.278 285.751 491.235 285.736 491.19 285.729C491.145 285.722 491.099 285.725 491.054 285.736C491.01 285.747 490.969 285.767 490.932 285.794L486.942 288.759C486.896 288.793 486.859 288.838 486.835 288.891C486.81 288.943 486.799 289 486.803 289.058C486.806 289.116 486.824 289.172 486.854 289.221C486.885 289.27 486.927 289.31 486.977 289.339L491.124 291.717C491.202 291.762 491.295 291.775 491.382 291.753V291.753Z" fill="#E9AB2F"/>
<path d="M497.301 293.757C497.335 293.748 497.367 293.735 497.397 293.716C497.436 293.693 497.47 293.661 497.497 293.625C497.524 293.588 497.543 293.546 497.554 293.501C497.565 293.457 497.567 293.411 497.56 293.366C497.553 293.321 497.537 293.277 497.513 293.238L491.843 283.913C491.795 283.834 491.718 283.778 491.629 283.756C491.539 283.735 491.444 283.75 491.366 283.797C491.287 283.845 491.231 283.923 491.209 284.012C491.187 284.102 491.202 284.196 491.249 284.275L496.919 293.6C496.958 293.664 497.016 293.713 497.085 293.741C497.153 293.769 497.229 293.775 497.301 293.757Z" fill="#E9AB2F"/>
<path d="M178.556 181.403H147.834C146.581 181.403 145.565 182.419 145.565 183.673V186.676C145.565 187.93 146.581 188.946 147.834 188.946H178.556C179.809 188.946 180.825 187.93 180.825 186.676V183.673C180.825 182.419 179.809 181.403 178.556 181.403Z" fill="#E9AB2F"/>
<path d="M196.463 196.489H129.927C128.673 196.489 127.657 197.505 127.657 198.759V201.762C127.657 203.016 128.673 204.032 129.927 204.032H196.463C197.716 204.032 198.732 203.016 198.732 201.762V198.759C198.732 197.505 197.716 196.489 196.463 196.489Z" fill="#E6E6E6"/>
<path d="M196.463 211.575H129.927C128.673 211.575 127.657 212.592 127.657 213.845V216.848C127.657 218.102 128.673 219.118 129.927 219.118H196.463C197.716 219.118 198.732 218.102 198.732 216.848V213.845C198.732 212.592 197.716 211.575 196.463 211.575Z" fill="#E6E6E6"/>
<path d="M202.103 262.093L202.254 262.569L202.262 262.585L206.798 276.382L212.017 292.281L221.835 322.161L221.93 326.802V326.818L222.66 364.155L220.637 369.217L222.913 377.516C222.913 377.516 221.867 364.971 216.252 372.175C213.072 376.269 209.352 380.458 206.299 384.385C210.748 386.186 215.268 387.816 219.86 389.273C220.852 389.59 221.851 389.892 222.85 390.193C223.064 390.257 223.278 390.32 223.492 390.383C238.714 394.887 254.45 397.417 270.315 397.913C271.14 397.937 271.949 397.952 272.734 397.968C273.011 397.976 273.281 397.984 273.551 397.984C274.439 397.992 275.319 398 276.207 398C278 398 279.784 397.974 281.561 397.921C294.709 397.55 307.781 395.781 320.556 392.645C320.468 387.369 320.23 381.204 319.889 374.619C319.731 371.39 316.17 367.891 315.956 364.511C315.805 361.972 319.001 359.584 318.835 357.005C317.756 341.13 316.408 347.224 315.409 335.982C315.306 334.879 315.21 333.824 315.123 332.816C314.481 325.596 314.037 321.082 314.037 321.082L318.303 294.178L325.005 251.937L324.489 251.088L323.91 250.803L288.563 233.301L286.644 228.382C286.085 226.964 285.115 225.747 283.858 224.886C282.602 224.025 281.117 223.56 279.594 223.55L256.309 223.455C255.101 223.449 253.909 223.732 252.832 224.28C251.754 224.828 250.823 225.625 250.116 226.604L243.811 235.34L202.103 262.093Z" fill="#3F3D56"/>
<path d="M227.204 315.512L221.93 326.802L218.33 334.514L212.136 366.956L209.035 370.248L206.378 358.592L178.572 364.769C177.659 359.699 178.327 364.94 177.764 359.379C177.923 359.22 178.089 359.061 178.256 358.903C178.7 358.49 179.073 358.101 179.065 357.728C178.748 338.544 179.699 305.896 187.646 286.117C188.89 282.887 190.531 279.825 192.531 277.001C192.69 276.786 192.84 276.572 192.991 276.358C196.655 271.225 198.971 266.171 202.254 262.577V262.569C202.275 262.552 202.293 262.534 202.31 262.513C202.322 262.507 202.332 262.499 202.341 262.49L224.896 250.525L225.864 277.723L226.554 297.272L227.204 315.512Z" fill="#3F3D56"/>
<path d="M308.532 318.719L315.12 332.82L317.419 337.731L323.611 370.169L326.702 373.454L329.365 361.801L330.616 361.544L353.182 356.869L359.759 377.766C361.241 375.295 361.825 372.387 361.412 369.535C360.999 366.683 359.614 364.062 357.491 362.113C357.042 361.707 356.668 361.311 356.679 360.936C357.053 338.372 355.673 297.171 343.214 280.214C339.257 274.832 336.883 269.472 333.429 265.727C333.418 265.717 333.418 265.706 333.408 265.706L325.002 251.937L324.488 251.091L323.911 250.802L308.532 318.719Z" fill="#3F3D56"/>
<path d="M268.624 216.825C285.732 216.825 299.601 202.951 299.601 185.836C299.601 168.72 285.732 154.846 268.624 154.846C251.516 154.846 237.647 168.72 237.647 185.836C237.647 202.951 251.516 216.825 268.624 216.825Z" fill="#FFB6B6"/>
<path d="M310.493 164.189C310.253 163.933 309.964 163.727 309.643 163.585C309.321 163.443 308.975 163.367 308.623 163.362L309.089 162.068C309.241 161.661 309.282 161.22 309.208 160.791C309.134 160.363 308.947 159.962 308.667 159.629C308.387 159.297 308.023 159.044 307.614 158.899C307.204 158.753 306.763 158.718 306.336 158.799L304.64 159.126L304.8 157.992C304.861 157.57 304.811 157.139 304.656 156.742C304.5 156.345 304.244 155.995 303.912 155.727C303.58 155.459 303.184 155.282 302.763 155.213C302.343 155.145 301.911 155.187 301.511 155.336C301.148 155.479 300.757 155.539 300.367 155.511C299.977 155.483 299.599 155.369 299.259 155.176C298.918 154.988 298.622 154.729 298.391 154.416C298.161 154.102 298.001 153.742 297.924 153.36L297.333 150.509L297.271 150.356C294.392 145.557 288.859 142.066 282.087 140.786C276.06 139.638 269.88 140.223 263.922 140.772C261.558 140.995 258.888 141.245 256.664 142.608C254.773 143.777 253.174 146.113 253.501 148.471C247.626 146.67 241.328 150.265 238.206 154.8C234.508 160.197 233.903 166.957 233.805 172.243C233.541 184.748 236.12 194.979 241.453 202.657C241.842 203.213 241.939 204.375 242.711 204.764L242.551 204.507C243.413 204.938 244.289 205.633 243.962 206.378C243.024 208.52 249.26 213.256 253.654 214.821C261.669 217.679 272.327 217.436 279.821 216.407L280.085 214.633C282.79 214.265 284.694 213.562 285.23 212.463C286.175 211.656 286.982 210.933 287.684 210.265L287.691 210.259C287.705 210.245 287.732 210.224 287.746 210.21C291.132 206.962 291.918 205.112 292.272 202.295C292.613 199.534 292.008 196.731 291.389 194.207C304.417 196.224 286.259 180.325 298.397 177.251C298.536 177.208 298.678 177.173 298.821 177.146C299.175 177.063 299.53 176.979 299.871 176.882C301.513 176.436 303.085 175.764 304.542 174.886C307.935 172.82 309.054 170.08 310.806 166.992C311.059 166.552 311.165 166.043 311.109 165.539C311.052 165.035 310.837 164.562 310.493 164.189V164.189Z" fill="#1F2229"/>
<path d="M378.185 320.925C378.178 322.142 378.164 323.846 378.109 325.953C378.102 326.246 378.095 326.545 378.088 326.851C377.998 330.724 377.907 333.972 377.761 337.582C377.754 337.832 377.747 338.076 377.733 338.326C377.539 343.362 377.233 349.225 376.705 358.509C375.724 375.66 374.014 360.867 372.297 366.883C372.213 367.182 372.123 367.537 372.04 367.954C371.78 369.468 371.341 370.946 370.733 372.357C369.822 372.899 368.883 373.421 367.959 373.942C365.324 375.41 362.648 376.822 359.95 378.164C358.435 378.915 356.912 379.652 355.383 380.362C355.139 380.473 354.903 380.584 354.667 380.689C346.835 384.313 338.763 387.394 330.508 389.911C328.895 390.398 327.29 390.871 325.663 391.309C323.966 391.782 322.27 392.227 320.553 392.644C307.779 395.781 294.707 397.551 281.559 397.923C279.786 397.978 278 397.999 276.206 397.999C275.316 397.999 274.44 397.992 273.55 397.985C273.279 397.985 273.008 397.978 272.737 397.971C271.951 397.951 271.138 397.937 270.318 397.916C254.452 397.421 238.716 394.889 223.496 390.384L222.849 390.196C221.848 389.89 220.854 389.591 219.86 389.271C215.271 387.817 210.75 386.19 206.296 384.389C202.897 383.018 199.537 381.549 196.216 379.979C196.186 379.971 196.157 379.957 196.132 379.937C195.437 379.617 194.735 379.284 194.04 378.943C193.949 378.894 193.852 378.845 193.755 378.797C191.162 377.531 188.596 376.205 186.059 374.819C183.925 369.915 180.921 368.976 179.058 364.664C178.516 363.383 178.124 362.044 177.89 360.672C177.89 360.658 177.883 360.644 177.883 360.624C178.078 363.211 177.056 356.033 177.876 360.596C177.869 360.512 177.862 360.422 177.856 360.318C177.835 360.067 177.807 359.761 177.765 359.379C175.381 336.087 175.534 309.449 174.498 287.5C174.428 286.081 174.356 284.722 174.282 283.424C174.261 282.993 174.234 282.569 174.206 282.151C174.254 282.026 174.31 281.894 174.373 281.769C174.386 281.733 174.402 281.698 174.421 281.665C174.442 281.621 174.465 281.58 174.491 281.539C174.505 281.519 174.525 281.491 174.539 281.47C174.55 281.446 174.561 281.423 174.574 281.4C174.637 281.303 174.706 281.199 174.783 281.101C174.817 281.059 174.845 281.025 174.88 280.99C174.904 280.954 174.932 280.922 174.963 280.893C174.985 280.859 175.011 280.829 175.04 280.802C175.068 280.774 175.096 280.74 175.13 280.705C175.145 280.683 175.164 280.664 175.186 280.649C175.241 280.586 175.301 280.528 175.367 280.475C175.615 280.247 175.88 280.038 176.159 279.849C176.257 279.787 176.361 279.724 176.458 279.655C177.159 279.235 177.896 278.881 178.662 278.597C178.926 278.5 179.19 278.41 179.475 278.312C179.58 278.285 179.677 278.25 179.781 278.215C179.934 278.166 180.087 278.118 180.247 278.083C181.04 277.846 181.895 277.645 182.819 277.457C182.93 277.436 183.049 277.415 183.167 277.387C183.334 277.353 183.508 277.325 183.681 277.297C183.918 277.255 184.161 277.213 184.404 277.172C186.469 276.845 188.812 276.601 191.398 276.441C191.641 276.428 191.885 276.414 192.128 276.4C192.413 276.386 192.698 276.372 192.99 276.358C193.233 276.344 193.484 276.337 193.734 276.33C193.977 276.316 194.228 276.309 194.485 276.302C195.187 276.282 195.91 276.261 196.647 276.247C198.746 276.205 200.957 276.219 203.279 276.268C204.357 276.295 205.455 276.323 206.581 276.372C206.658 276.372 206.727 276.379 206.797 276.379C207.777 276.414 208.764 276.455 209.779 276.511C210.488 276.546 211.204 276.581 211.92 276.622C212.595 276.664 213.276 276.706 213.964 276.754C214.5 276.782 215.035 276.824 215.577 276.859C216.036 276.894 216.495 276.928 216.954 276.956L217.579 276.998C217.92 277.026 218.261 277.047 218.608 277.081C219.373 277.144 220.138 277.207 220.916 277.269C221.688 277.339 222.474 277.408 223.259 277.478C224.045 277.547 224.837 277.624 225.63 277.7C225.713 277.707 225.79 277.714 225.866 277.721C226.589 277.798 227.312 277.867 228.042 277.944C228.209 277.958 228.383 277.972 228.55 277.992C229.246 278.062 229.955 278.144 230.658 278.219C230.873 278.242 231.088 278.265 231.304 278.288C231.854 278.348 232.396 278.4 232.95 278.465C233.68 278.549 234.424 278.625 235.147 278.723C235.71 278.785 236.273 278.848 236.836 278.917C237.719 279.022 238.616 279.133 239.513 279.251C239.854 279.293 240.194 279.335 240.535 279.383C243.093 279.703 245.679 280.058 248.307 280.427C252.291 280.99 256.337 281.602 260.411 282.263C264.492 282.923 268.596 283.621 272.723 284.356C273.766 284.544 274.809 284.732 275.858 284.926C276.331 285.017 276.804 285.107 277.276 285.198C278.083 285.344 278.889 285.497 279.696 285.65C280.502 285.803 281.309 285.956 282.115 286.116C283.074 286.303 284.041 286.491 285 286.679C291.32 287.931 297.604 289.266 303.736 290.664C304.744 290.894 305.752 291.13 306.753 291.36C308.755 291.826 310.739 292.299 312.704 292.779C313.246 292.904 313.782 293.036 314.317 293.168C315.652 293.502 316.986 293.836 318.3 294.176L318.53 294.239C319.496 294.475 320.442 294.719 321.387 294.969C323.619 295.554 325.813 296.145 327.971 296.743C329.403 297.139 330.819 297.54 332.218 297.946C334.311 298.551 336.362 299.163 338.357 299.782C338.851 299.935 339.344 300.088 339.831 300.234C341.291 300.686 342.73 301.145 344.127 301.604C345.24 301.966 346.324 302.335 347.395 302.703C348.465 303.072 349.515 303.44 350.544 303.809C351.204 304.045 351.858 304.296 352.511 304.532C353.45 304.88 354.375 305.228 355.278 305.576C355.556 305.68 355.828 305.791 356.099 305.895C356.272 305.972 356.439 306.035 356.606 306.104C356.933 306.236 357.267 306.361 357.586 306.494C357.913 306.619 358.233 306.751 358.553 306.89C358.866 307.015 359.185 307.147 359.491 307.279C359.804 307.405 360.11 307.537 360.416 307.676C360.673 307.78 360.923 307.892 361.167 308.003C361.66 308.218 362.154 308.434 362.634 308.657C362.87 308.768 363.106 308.872 363.343 308.983L363.885 309.234C363.961 309.276 364.038 309.31 364.114 309.345C364.288 309.429 364.469 309.519 364.643 309.602C365.046 309.79 365.442 309.992 365.831 310.18C366.353 310.444 366.86 310.708 367.347 310.966C367.841 311.23 368.32 311.494 368.779 311.751C368.856 311.793 368.925 311.835 369.002 311.877C369.106 311.932 369.21 311.995 369.314 312.051C369.669 312.252 370.01 312.461 370.35 312.663C371.018 313.073 371.65 313.476 372.241 313.88C372.373 313.97 372.498 314.06 372.631 314.144C373.069 314.457 373.486 314.763 373.875 315.076C373.875 315.083 373.875 315.083 373.882 315.083C374.014 315.18 374.139 315.285 374.264 315.382C374.369 315.479 374.48 315.563 374.584 315.66C374.946 315.973 375.279 316.272 375.585 316.578C375.688 316.673 375.785 316.772 375.877 316.877C375.918 316.911 375.955 316.948 375.988 316.988C376.127 317.128 376.253 317.267 376.371 317.406C376.389 317.425 376.405 317.446 376.419 317.468C376.586 317.663 376.739 317.858 376.885 318.053C376.955 318.15 377.031 318.247 377.094 318.345C377.177 318.463 377.261 318.588 377.33 318.706C377.393 318.804 377.448 318.908 377.504 319.005C377.651 319.256 377.777 319.519 377.879 319.791C377.958 319.976 378.02 320.167 378.067 320.362C378.12 320.546 378.159 320.735 378.185 320.925V320.925Z" fill="#949494"/>
<path opacity="0.2" d="M378.185 320.925C378.178 322.142 378.164 323.846 378.109 325.953C378.102 326.246 378.088 326.545 378.081 326.851C378.011 329.806 377.907 333.458 377.761 337.582C377.754 337.832 377.747 338.076 377.733 338.326C377.539 343.362 377.233 349.225 376.705 358.509C375.724 375.66 374.014 360.867 372.297 366.883C367.528 363.948 362.3 360.874 356.71 357.716C355.702 357.146 354.685 356.574 353.659 355.999C342.48 349.76 329.994 343.222 316.959 336.747C316.444 336.49 315.923 336.233 315.408 335.982C285.549 321.217 252.958 306.855 226.554 297.271C221.459 295.421 216.592 293.752 212.018 292.285C202.382 289.204 194.054 287.048 187.644 286.116C180.97 285.142 176.361 285.49 174.498 287.5C174.428 286.081 174.356 284.722 174.282 283.424C174.254 282.993 174.226 282.569 174.199 282.151C174.242 282.037 174.297 281.928 174.351 281.817C174.359 281.801 174.365 281.785 174.373 281.769C174.386 281.733 174.402 281.698 174.421 281.665C174.442 281.621 174.465 281.58 174.491 281.539C174.513 281.49 174.541 281.443 174.574 281.4C174.637 281.303 174.706 281.199 174.783 281.101C174.839 281.028 174.899 280.959 174.963 280.893C174.985 280.859 175.01 280.829 175.04 280.802C175.068 280.774 175.096 280.739 175.13 280.705C175.145 280.683 175.164 280.664 175.186 280.649C175.241 280.586 175.301 280.528 175.367 280.475C175.615 280.247 175.88 280.038 176.159 279.849C176.256 279.787 176.361 279.724 176.458 279.655C177.159 279.235 177.896 278.881 178.662 278.597C178.926 278.5 179.19 278.41 179.475 278.312C179.58 278.284 179.677 278.25 179.781 278.215C179.934 278.166 180.087 278.118 180.247 278.083C181.04 277.846 181.895 277.645 182.819 277.457C183.097 277.401 183.389 277.346 183.681 277.297C183.918 277.255 184.161 277.213 184.404 277.172C186.469 276.845 188.812 276.601 191.398 276.441C191.641 276.427 191.885 276.414 192.128 276.4C192.413 276.386 192.698 276.372 192.99 276.358C193.233 276.344 193.484 276.337 193.734 276.33C193.977 276.316 194.228 276.309 194.485 276.302C195.187 276.281 195.91 276.261 196.647 276.247C198.746 276.212 200.957 276.226 203.279 276.274C204.357 276.295 205.455 276.33 206.581 276.379C206.651 276.379 206.727 276.386 206.797 276.386C207.777 276.414 208.771 276.462 209.779 276.511C210.488 276.546 211.204 276.58 211.92 276.622C212.595 276.664 213.276 276.706 213.964 276.754C214.5 276.782 215.035 276.824 215.577 276.859C216.036 276.893 216.495 276.928 216.954 276.956C217.503 276.998 218.052 277.04 218.608 277.081C219.373 277.144 220.138 277.206 220.916 277.269C221.688 277.339 222.474 277.408 223.259 277.478C224.045 277.547 224.837 277.624 225.63 277.7C225.713 277.707 225.79 277.714 225.866 277.721C226.589 277.798 227.312 277.867 228.042 277.944C232.088 278.354 236.253 278.834 240.535 279.383C243.093 279.71 245.684 280.06 248.307 280.434C252.291 280.997 256.337 281.609 260.411 282.263C264.492 282.923 268.596 283.621 272.723 284.356C273.766 284.544 274.809 284.732 275.858 284.926C277.137 285.163 278.417 285.404 279.696 285.65C280.502 285.803 281.309 285.956 282.115 286.116C283.074 286.303 284.041 286.491 285 286.679C291.32 287.931 297.604 289.266 303.736 290.664C304.744 290.894 305.752 291.13 306.753 291.36C308.755 291.826 310.739 292.299 312.704 292.778C313.246 292.911 313.782 293.043 314.317 293.175C315.659 293.509 316.987 293.843 318.3 294.176V294.183C318.377 294.197 318.453 294.218 318.53 294.239C319.489 294.482 320.442 294.726 321.387 294.976C323.619 295.56 325.813 296.149 327.971 296.743C329.403 297.146 330.821 297.543 332.218 297.946C334.311 298.558 336.362 299.17 338.357 299.782C338.851 299.935 339.344 300.088 339.831 300.234C341.291 300.693 342.723 301.15 344.127 301.604C345.24 301.966 346.324 302.335 347.395 302.703C348.465 303.072 349.515 303.44 350.544 303.809C351.211 304.045 351.865 304.289 352.511 304.525C353.457 304.873 354.375 305.221 355.278 305.576C355.556 305.68 355.828 305.791 356.099 305.895C356.606 306.09 357.1 306.292 357.586 306.494C357.913 306.619 358.233 306.751 358.553 306.89C358.866 307.015 359.185 307.147 359.491 307.279C359.804 307.405 360.11 307.537 360.416 307.676C360.673 307.78 360.923 307.891 361.167 308.003C361.66 308.218 362.154 308.434 362.634 308.657C362.87 308.768 363.106 308.872 363.343 308.983L363.885 309.234C363.961 309.276 364.038 309.31 364.114 309.345C364.705 309.623 365.275 309.901 365.831 310.18C366.353 310.444 366.86 310.708 367.347 310.966C367.924 311.272 368.473 311.571 369.002 311.877C369.106 311.932 369.21 311.995 369.314 312.051C369.669 312.252 370.01 312.461 370.35 312.663C371.018 313.073 371.65 313.476 372.241 313.88C372.825 314.283 373.368 314.679 373.875 315.076C373.875 315.083 373.875 315.083 373.882 315.083C374.125 315.278 374.362 315.472 374.584 315.66C374.946 315.973 375.279 316.272 375.585 316.578C375.688 316.673 375.785 316.772 375.877 316.877C375.918 316.911 375.955 316.948 375.988 316.989C376.134 317.148 376.28 317.308 376.42 317.468C376.586 317.663 376.739 317.858 376.885 318.053C376.955 318.15 377.031 318.247 377.094 318.345C377.177 318.463 377.261 318.588 377.33 318.706C377.393 318.804 377.448 318.908 377.504 319.005C377.652 319.256 377.777 319.519 377.879 319.791C377.955 319.977 378.018 320.167 378.067 320.362C378.12 320.546 378.159 320.735 378.185 320.925V320.925Z" fill="black"/>
</g>
<defs>
<clipPath id="clip0_50_2">
<rect width="547" height="398" fill="white"/>
</clipPath>
</defs>
</svg>
