<svg width="350" height="350" viewBox="0 0 350 350" fill="none" xmlns="http://www.w3.org/2000/svg">
<g clip-path="url(#clip0_26_71)">
<rect width="350" height="350" fill="#33CC95"/>
<g filter="url(#filter0_d_26_71)">
<path d="M300 175C300 244.036 244.036 300 175 300C105.964 300 50 244.036 50 175C50 105.964 105.964 50 175 50C244.036 50 300 105.964 300 175Z" fill="white"/>
</g>
<circle cx="175" cy="175" r="125" fill="#33CC95"/>
<path d="M163.802 228C153.772 228 146.405 225.648 141.702 220.945C136.999 216.242 134.647 208.875 134.647 198.845C134.647 197.485 135.044 196.408 135.837 195.615C136.687 194.822 137.792 194.425 139.152 194.425C140.512 194.425 141.589 194.822 142.382 195.615C143.175 196.408 143.572 197.485 143.572 198.845C143.572 206.438 145.045 211.708 147.992 214.655C150.995 217.602 156.265 219.075 163.802 219.075H187.262C194.799 219.075 200.04 217.602 202.987 214.655C205.934 211.708 207.407 206.438 207.407 198.845C207.407 191.252 205.934 186.01 202.987 183.12C200.04 180.173 194.799 178.7 187.262 178.7H166.352C156.775 178.7 149.749 176.32 145.272 171.56C140.795 166.743 138.557 159.603 138.557 150.14C138.557 140.563 140.767 133.565 145.187 129.145C149.664 124.725 156.662 122.515 166.182 122.515H186.752C196.272 122.515 203.242 124.725 207.662 129.145C212.082 133.565 214.292 140.507 214.292 149.97C214.292 151.33 213.895 152.407 213.102 153.2C212.309 153.993 211.232 154.39 209.872 154.39C208.512 154.39 207.407 153.993 206.557 153.2C205.764 152.407 205.367 151.33 205.367 149.97C205.367 143.057 204.007 138.24 201.287 135.52C198.567 132.8 193.722 131.44 186.752 131.44H166.182C159.212 131.44 154.339 132.8 151.562 135.52C148.842 138.24 147.482 143.113 147.482 150.14C147.482 157.053 148.842 162.068 151.562 165.185C154.339 168.245 159.269 169.775 166.352 169.775H187.262C197.292 169.775 204.63 172.127 209.277 176.83C213.98 181.477 216.332 188.815 216.332 198.845C216.332 208.875 213.98 216.242 209.277 220.945C204.63 225.648 197.292 228 187.262 228H163.802ZM175.872 242.28C173.095 242.28 171.707 240.892 171.707 238.115V175.47L172.472 172.495V109.935C172.472 107.158 173.86 105.77 176.637 105.77C179.414 105.77 180.802 107.158 180.802 109.935V173.175L180.037 176.15V238.115C180.037 240.892 178.649 242.28 175.872 242.28Z" fill="white"/>
<g filter="url(#filter1_f_26_71)">
<rect x="-12.5" y="-12.5" width="370" height="370" stroke="#010A07" stroke-width="15"/>
</g>
</g>
<defs>
<filter id="filter0_d_26_71" x="-24" y="-24" width="398" height="398" filterUnits="userSpaceOnUse" color-interpolation-filters="sRGB">
<feFlood flood-opacity="0" result="BackgroundImageFix"/>
<feColorMatrix in="SourceAlpha" type="matrix" values="0 0 0 0 0 0 0 0 0 0 0 0 0 0 0 0 0 0 127 0" result="hardAlpha"/>
<feOffset/>
<feGaussianBlur stdDeviation="37"/>
<feComposite in2="hardAlpha" operator="out"/>
<feColorMatrix type="matrix" values="0 0 0 0 0.0208333 0 0 0 0 0.0208333 0 0 0 0 0.0208333 0 0 0 0.25 0"/>
<feBlend mode="normal" in2="BackgroundImageFix" result="effect1_dropShadow_26_71"/>
<feBlend mode="normal" in="SourceGraphic" in2="effect1_dropShadow_26_71" result="shape"/>
</filter>
<filter id="filter1_f_26_71" x="-46" y="-46" width="437" height="437" filterUnits="userSpaceOnUse" color-interpolation-filters="sRGB">
<feFlood flood-opacity="0" result="BackgroundImageFix"/>
<feBlend mode="normal" in="SourceGraphic" in2="BackgroundImageFix" result="shape"/>
<feGaussianBlur stdDeviation="13" result="effect1_foregroundBlur_26_71"/>
</filter>
<clipPath id="clip0_26_71">
<rect width="350" height="350" fill="white"/>
</clipPath>
</defs>
</svg>
