<svg width="350" height="350" viewBox="0 0 350 350" fill="none" xmlns="http://www.w3.org/2000/svg">
<g clip-path="url(#clip0_123_9)">
<rect width="350" height="350" fill="#191920"/>
<g filter="url(#filter0_f_123_9)">
<rect x="-13.5" y="-7.5" width="371" height="365" stroke="#0D0E11" stroke-width="15"/>
</g>
<g clip-path="url(#clip1_123_9)">
<path d="M279.531 169.927C279.531 169.436 279.202 169.109 278.707 169.109H264.363C263.869 169.109 263.539 169.436 263.539 169.927C263.539 170.418 263.869 170.745 264.363 170.745H278.707C279.202 170.745 279.531 170.336 279.531 169.927Z" fill="white"/>
<path d="M267.661 173.2H266.012C265.517 173.2 265.188 173.527 265.188 174.018C265.188 174.509 265.517 174.836 266.012 174.836H267.661C268.155 174.836 268.485 174.509 268.485 174.018C268.485 173.527 268.155 173.2 267.661 173.2Z" fill="white"/>
<path d="M271.535 165.836C271.535 165.345 271.205 165.018 270.711 165.018H262.714C262.22 165.018 261.89 165.345 261.89 165.836C261.89 166.327 262.22 166.655 262.714 166.655H270.711C271.205 166.655 271.535 166.245 271.535 165.836Z" fill="white"/>
<path d="M312.505 167.227C312.258 166.736 311.763 166.327 311.269 166.082L305.004 163.709L302.448 162.809C301.706 162.482 301.047 161.991 300.635 161.336L298.491 157.818C298.904 157.736 299.151 157.409 299.151 157C299.151 156.509 298.821 156.182 298.326 156.182H297.502L296.513 154.545C296.925 154.464 297.172 154.136 297.172 153.727C297.172 153.236 296.843 152.909 296.348 152.909H295.524L294.699 151.6C295.029 151.518 295.276 151.191 295.276 150.864C295.276 150.373 294.947 150.045 294.452 150.045H293.71L292.638 148.327C292.638 148.327 292.638 148.245 292.556 148.245C291.567 147.1 290.248 146.527 288.846 146.691C287.61 146.855 286.621 147.591 286.209 148.491C286.126 148.736 286.126 148.982 286.291 149.227L293.133 160.845C293.216 161.009 293.38 161.173 293.545 161.173L301.954 164.364H302.036L304.509 165.264L310.692 167.636C310.857 167.718 311.021 167.8 311.104 168.045C311.434 168.7 311.434 169.355 311.021 170.009H297.585C296.76 170.009 295.936 169.764 295.276 169.273L272.277 152.336C272.277 152.336 272.607 152.173 273.019 151.6C273.431 151.027 273.596 150.291 273.596 149.555L272.854 142.682L273.843 141.127C274.091 140.8 274.585 140.718 274.915 140.964C275.162 141.209 276.151 142.027 278.542 145.873C279.779 147.673 281.757 148.982 283.983 149.309C284.395 149.391 284.89 149.064 284.972 148.655C285.054 148.245 284.725 147.755 284.313 147.673C282.581 147.345 280.933 146.364 279.943 144.891C277.058 140.473 276.234 139.818 275.904 139.573C274.833 138.836 273.349 139.082 272.524 140.145L267.496 148.082C267.166 148.573 267.084 149.145 267.166 149.718C266.671 149.882 266.177 150.127 265.93 150.618L264.611 152.664C263.869 153.727 264.198 155.2 265.27 155.936C266.012 156.509 267.578 157.491 269.886 158.964C270.051 159.045 270.216 159.127 270.299 159.127C270.546 159.127 270.793 158.964 270.958 158.718C271.205 158.309 271.123 157.818 270.711 157.573C268.485 156.1 266.919 155.118 266.177 154.545C265.847 154.3 265.765 153.891 266.012 153.482L267.248 151.6C267.496 151.273 267.99 151.191 268.32 151.436L294.205 170.582C295.194 171.318 296.348 171.645 297.502 171.645H308.878C307.147 172.464 304.756 173.2 302.696 173.2H299.81H297.42C296.018 173.2 294.617 172.791 293.463 172.055C288.682 169.027 279.779 163.382 273.266 159.209C272.854 158.964 272.359 159.045 272.112 159.455C271.865 159.864 271.947 160.355 272.359 160.6C278.707 164.691 287.363 170.173 292.226 173.282H270.958C270.463 173.282 270.134 173.609 270.134 174.1C270.134 174.591 270.463 174.918 270.958 174.918H297.42H299.81H302.613C305.993 174.918 310.857 173.118 312.093 171.4C313.165 169.927 313.247 168.536 312.505 167.227ZM294.287 159.864L287.857 148.982C288.105 148.736 288.517 148.491 289.011 148.409C289.506 148.327 290.413 148.409 291.237 149.309L291.732 150.127H290.99C290.495 150.127 290.165 150.455 290.165 150.945C290.165 151.436 290.495 151.764 290.99 151.764H292.721L293.545 153.073H292.886C292.391 153.073 292.061 153.4 292.061 153.891C292.061 154.382 292.391 154.709 292.886 154.709H294.534L295.524 156.264H294.864C294.37 156.264 294.04 156.591 294.04 157.082C294.04 157.573 294.37 157.9 294.864 157.9H296.513L298.821 161.5L294.287 159.864ZM268.897 148.982L271.453 144.973L271.947 149.718C271.947 150.045 271.865 150.373 271.7 150.618C271.535 150.864 271.205 151.518 270.463 150.945C270.463 150.945 270.051 150.7 269.309 150.127C268.815 149.718 268.732 149.309 268.897 148.982Z" fill="white"/>
<path d="M45.4814 166.471H42.6982V174H37.5566V152.672H45.9502C48.4795 152.672 50.457 153.233 51.8828 154.356C53.3086 155.479 54.0215 157.066 54.0215 159.117C54.0215 160.602 53.7212 161.832 53.1206 162.809C52.52 163.785 51.5801 164.576 50.3008 165.182L54.7539 173.78V174H49.2461L45.4814 166.471ZM42.6982 162.501H45.9502C46.9268 162.501 47.6616 162.245 48.1548 161.732C48.648 161.219 48.8945 160.504 48.8945 159.586C48.8945 158.668 48.6455 157.948 48.1475 157.425C47.6494 156.903 46.917 156.642 45.9502 156.642H42.6982V162.501ZM75.1885 163.775C75.1885 165.855 74.8027 167.696 74.0312 169.298C73.2598 170.899 72.1636 172.132 70.7427 172.997C69.3218 173.861 67.7031 174.293 65.8867 174.293C64.0703 174.293 62.459 173.875 61.0527 173.041C59.6465 172.206 58.5503 171.012 57.7642 169.459C56.978 167.906 56.5654 166.124 56.5264 164.112V162.911C56.5264 160.821 56.9097 158.978 57.6763 157.381C58.4429 155.785 59.5415 154.552 60.9722 153.683C62.4028 152.813 64.0312 152.379 65.8574 152.379C67.6641 152.379 69.2754 152.809 70.6914 153.668C72.1074 154.527 73.2085 155.75 73.9946 157.337C74.7808 158.924 75.1787 160.743 75.1885 162.794V163.775ZM69.959 162.882C69.959 160.763 69.605 159.154 68.897 158.055C68.189 156.957 67.1758 156.407 65.8574 156.407C63.2793 156.407 61.917 158.341 61.7705 162.208L61.7559 163.775C61.7559 165.865 62.1025 167.472 62.7959 168.595C63.4893 169.718 64.5195 170.279 65.8867 170.279C67.1856 170.279 68.1865 169.728 68.8896 168.624C69.5928 167.521 69.9492 165.934 69.959 163.863V162.882ZM95.0957 166.778C95.0273 168.263 94.627 169.574 93.8945 170.711C93.1621 171.849 92.1343 172.73 90.811 173.355C89.4878 173.98 87.9766 174.293 86.2773 174.293C83.4746 174.293 81.2676 173.38 79.6562 171.554C78.0449 169.728 77.2393 167.149 77.2393 163.819V162.765C77.2393 160.675 77.603 158.846 78.3306 157.279C79.0581 155.711 80.1055 154.5 81.4727 153.646C82.8399 152.791 84.4219 152.364 86.2188 152.364C88.8067 152.364 90.8867 153.045 92.459 154.408C94.0313 155.77 94.9248 157.647 95.1396 160.04H90.0127C89.9736 158.741 89.6465 157.809 89.0312 157.242C88.416 156.676 87.4785 156.393 86.2188 156.393C84.9394 156.393 84.002 156.871 83.4062 157.828C82.8105 158.785 82.498 160.313 82.4688 162.413V163.922C82.4688 166.197 82.7544 167.823 83.3257 168.8C83.897 169.776 84.8809 170.265 86.2773 170.265C87.459 170.265 88.3623 169.986 88.9873 169.43C89.6123 168.873 89.9443 167.989 89.9834 166.778H95.0957ZM104.778 166.061L102.669 168.375V174H97.5273V152.672H102.669V162.076L104.456 159.366L109.056 152.672H115.413L108.206 162.105L115.413 174H109.319L104.778 166.061ZM129.944 164.962H121.858V170.045H131.409V174H116.717V152.672H131.438V156.642H121.858V161.139H129.944V164.962ZM150.54 156.642H144.139V174H138.997V156.642H132.713V152.672H150.54V156.642ZM163.475 168.331C163.475 167.579 163.208 166.993 162.676 166.573C162.144 166.153 161.209 165.719 159.871 165.27C158.533 164.82 157.439 164.386 156.59 163.966C153.826 162.608 152.444 160.743 152.444 158.37C152.444 157.188 152.789 156.146 153.477 155.243C154.166 154.339 155.14 153.636 156.399 153.133C157.659 152.63 159.075 152.379 160.647 152.379C162.181 152.379 163.555 152.652 164.771 153.199C165.987 153.746 166.932 154.525 167.605 155.536C168.279 156.546 168.616 157.701 168.616 159H163.489C163.489 158.131 163.223 157.457 162.691 156.979C162.159 156.5 161.438 156.261 160.53 156.261C159.612 156.261 158.887 156.463 158.355 156.869C157.823 157.274 157.557 157.789 157.557 158.414C157.557 158.961 157.85 159.457 158.436 159.901C159.021 160.345 160.052 160.804 161.526 161.278C163.001 161.751 164.212 162.262 165.159 162.809C167.464 164.137 168.616 165.968 168.616 168.302C168.616 170.167 167.913 171.632 166.507 172.696C165.101 173.761 163.172 174.293 160.721 174.293C158.992 174.293 157.427 173.983 156.026 173.363C154.625 172.743 153.57 171.893 152.862 170.814C152.154 169.735 151.8 168.492 151.8 167.086H156.956C156.956 168.229 157.251 169.071 157.842 169.613C158.433 170.155 159.393 170.426 160.721 170.426C161.57 170.426 162.242 170.243 162.735 169.876C163.228 169.51 163.475 168.995 163.475 168.331ZM189.08 174H183.968V165.094H176.395V174H171.253V152.672H176.395V161.139H183.968V152.672H189.08V174ZM210.394 163.775C210.394 165.855 210.008 167.696 209.236 169.298C208.465 170.899 207.369 172.132 205.948 172.997C204.527 173.861 202.908 174.293 201.092 174.293C199.275 174.293 197.664 173.875 196.258 173.041C194.852 172.206 193.755 171.012 192.969 169.459C192.183 167.906 191.771 166.124 191.731 164.112V162.911C191.731 160.821 192.115 158.978 192.881 157.381C193.648 155.785 194.747 154.552 196.177 153.683C197.608 152.813 199.236 152.379 201.062 152.379C202.869 152.379 204.48 152.809 205.896 153.668C207.313 154.527 208.414 155.75 209.2 157.337C209.986 158.924 210.384 160.743 210.394 162.794V163.775ZM205.164 162.882C205.164 160.763 204.81 159.154 204.102 158.055C203.394 156.957 202.381 156.407 201.062 156.407C198.484 156.407 197.122 158.341 196.976 162.208L196.961 163.775C196.961 165.865 197.308 167.472 198.001 168.595C198.694 169.718 199.725 170.279 201.092 170.279C202.391 170.279 203.392 169.728 204.095 168.624C204.798 167.521 205.154 165.934 205.164 163.863V162.882ZM226.272 164.962H218.187V170.045H227.737V174H213.045V152.672H227.767V156.642H218.187V161.139H226.272V164.962ZM240.833 168.331C240.833 167.579 240.567 166.993 240.035 166.573C239.502 166.153 238.567 165.719 237.229 165.27C235.892 164.82 234.798 164.386 233.948 163.966C231.185 162.608 229.803 160.743 229.803 158.37C229.803 157.188 230.147 156.146 230.835 155.243C231.524 154.339 232.498 153.636 233.758 153.133C235.018 152.63 236.434 152.379 238.006 152.379C239.539 152.379 240.914 152.652 242.129 153.199C243.345 153.746 244.29 154.525 244.964 155.536C245.638 156.546 245.975 157.701 245.975 159H240.848C240.848 158.131 240.582 157.457 240.049 156.979C239.517 156.5 238.797 156.261 237.889 156.261C236.971 156.261 236.246 156.463 235.713 156.869C235.181 157.274 234.915 157.789 234.915 158.414C234.915 158.961 235.208 159.457 235.794 159.901C236.38 160.345 237.41 160.804 238.885 161.278C240.359 161.751 241.57 162.262 242.518 162.809C244.822 164.137 245.975 165.968 245.975 168.302C245.975 170.167 245.271 171.632 243.865 172.696C242.459 173.761 240.53 174.293 238.079 174.293C236.351 174.293 234.786 173.983 233.384 173.363C231.983 172.743 230.928 171.893 230.22 170.814C229.512 169.735 229.158 168.492 229.158 167.086H234.314C234.314 168.229 234.61 169.071 235.201 169.613C235.792 170.155 236.751 170.426 238.079 170.426C238.929 170.426 239.6 170.243 240.093 169.876C240.586 169.51 240.833 168.995 240.833 168.331Z" fill="white"/>
</g>
</g>
<defs>
<filter id="filter0_f_123_9" x="-47" y="-41" width="438" height="432" filterUnits="userSpaceOnUse" color-interpolation-filters="sRGB">
<feFlood flood-opacity="0" result="BackgroundImageFix"/>
<feBlend mode="normal" in="SourceGraphic" in2="BackgroundImageFix" result="shape"/>
<feGaussianBlur stdDeviation="13" result="effect1_foregroundBlur_123_9"/>
</filter>
<clipPath id="clip0_123_9">
<rect width="350" height="350" fill="white"/>
</clipPath>
<clipPath id="clip1_123_9">
<rect width="276" height="36" fill="white" transform="translate(37 139)"/>
</clipPath>
</defs>
</svg>
