<svg width="350" height="350" viewBox="0 0 350 350" fill="none" xmlns="http://www.w3.org/2000/svg">
<g clip-path="url(#clip0_27_119)">
<rect width="350" height="350" fill="#1F2229"/>
<g filter="url(#filter0_f_27_119)">
<rect x="-13.5" y="-7.5" width="371" height="365" stroke="#0D0E11" stroke-width="15"/>
</g>
<path d="M37.0954 191.266C36.5358 187.067 33.1779 184.471 27.4637 184.471C21.6756 184.471 17.8611 187.171 17.876 191.562C17.8611 194.975 19.9967 197.185 24.4149 198.075L28.3325 198.862C30.3059 199.262 31.2043 199.989 31.2339 201.132C31.2043 202.482 29.7464 203.446 27.552 203.446C25.3133 203.446 23.8258 202.482 23.4429 200.627L17.2721 200.954C17.8612 205.315 21.5431 208.001 27.5373 208.001C33.3988 208.001 37.5962 204.989 37.6108 200.494C37.5962 197.2 35.4607 195.227 31.0718 194.322L26.9776 193.491C24.8716 193.031 24.0909 192.304 24.1057 191.206C24.0909 189.842 25.6226 188.951 27.5666 188.951C29.7464 188.951 31.0424 190.153 31.3517 191.622L37.0954 191.266Z" fill="#F8F8F8"/>
<path d="M41.5615 216.101H47.8354V203.906H48.0269C48.8959 205.805 50.7957 207.926 54.4481 207.926C59.6028 207.926 63.6234 203.817 63.6234 196.191C63.6234 188.358 59.4261 184.471 54.4628 184.471C50.6779 184.471 48.8664 186.741 48.0269 188.595H47.7471V184.768H41.5615V216.101ZM47.7029 196.162C47.7029 192.097 49.4112 189.5 52.46 189.5C55.5674 189.5 57.2169 192.215 57.2169 196.162C57.2169 200.138 55.538 202.897 52.46 202.897C49.4408 202.897 47.7029 200.227 47.7029 196.162Z" fill="#F8F8F8"/>
<path d="M74.2567 207.986C77.5998 207.986 79.7648 206.517 80.8694 204.396H81.0462V207.556H86.996V192.186C86.996 186.756 82.4305 184.471 77.3936 184.471C71.974 184.471 68.4099 187.082 67.5409 191.236L73.3436 191.711C73.7706 190.198 75.1109 189.085 77.3643 189.085C79.4998 189.085 80.7222 190.168 80.7222 192.037V192.126C80.7222 193.595 79.1757 193.788 75.2434 194.174C70.7663 194.589 66.7457 196.102 66.7457 201.191C66.7457 205.701 69.9415 207.986 74.2567 207.986ZM76.0535 203.624C74.1242 203.624 72.7397 202.719 72.7397 200.983C72.7397 199.203 74.1978 198.328 76.4069 198.016C77.7766 197.823 80.0152 197.497 80.7662 196.992V199.411C80.7662 201.799 78.8075 203.624 76.0535 203.624Z" fill="#F8F8F8"/>
<path d="M102.085 208.001C108.107 208.001 111.893 204.44 112.187 199.203H106.267C105.899 201.636 104.309 203.001 102.158 203.001C99.227 203.001 97.3279 200.523 97.3279 196.162C97.3279 191.859 99.2425 189.396 102.158 189.396C104.456 189.396 105.928 190.924 106.267 193.194H112.187C111.923 187.928 107.96 184.471 102.056 184.471C95.192 184.471 90.9504 189.263 90.9504 196.251C90.9504 203.179 95.1177 208.001 102.085 208.001Z" fill="#F8F8F8"/>
<path d="M126.514 208.001C132.11 208.001 135.88 205.256 136.763 201.028L130.962 200.642C130.328 202.378 128.709 203.283 126.616 203.283C123.48 203.283 121.491 201.191 121.491 197.794V197.779H136.896V196.043C136.896 188.299 132.243 184.471 126.264 184.471C119.606 184.471 115.291 189.233 115.291 196.265C115.291 203.491 119.547 208.001 126.514 208.001ZM121.491 193.862C121.624 191.266 123.584 189.189 126.366 189.189C129.091 189.189 130.976 191.147 130.992 193.862H121.491Z" fill="#F8F8F8"/>
<path d="M153.024 184.768H148.766V179.308H142.493V184.768H139.4V189.515H142.493V201.384C142.464 205.849 145.483 208.06 150.033 207.867C151.654 207.808 152.803 207.481 153.435 207.274L152.449 202.571C152.139 202.63 151.478 202.778 150.888 202.778C149.635 202.778 148.766 202.304 148.766 200.553V189.515H153.024V184.768Z" fill="#F8F8F8"/>
<path d="M157.111 207.556H163.384V194.663C163.384 191.859 165.416 189.931 168.186 189.931C169.055 189.931 170.247 190.079 170.837 190.272V184.664C170.277 184.53 169.496 184.441 168.863 184.441C166.33 184.441 164.253 185.925 163.429 188.744H163.194V184.768H157.111V207.556Z" fill="#F8F8F8"/>
<path d="M179.883 207.986C183.227 207.986 185.39 206.517 186.496 204.396H186.672V207.556H192.622V192.186C192.622 186.756 188.057 184.471 183.019 184.471C177.6 184.471 174.035 187.082 173.168 191.236L178.969 191.711C179.397 190.198 180.737 189.085 182.99 189.085C185.126 189.085 186.348 190.168 186.348 192.037V192.126C186.348 193.595 184.801 193.788 180.87 194.174C176.392 194.589 172.371 196.102 172.371 201.191C172.371 205.701 175.568 207.986 179.883 207.986ZM181.68 203.624C179.75 203.624 178.366 202.719 178.366 200.983C178.366 199.203 179.824 198.328 182.033 198.016C183.403 197.823 185.641 197.497 186.392 196.992V199.411C186.392 201.799 184.433 203.624 181.68 203.624Z" fill="#F8F8F8"/>
<path d="M217.77 184.768H211.128L206.445 201.072H206.208L201.511 184.768H194.882L202.791 207.556H209.861L217.77 184.768Z" fill="#F8F8F8"/>
<path d="M230.52 208.001C236.117 208.001 239.887 205.256 240.77 201.028L234.967 200.642C234.335 202.378 232.714 203.283 230.623 203.283C227.485 203.283 225.498 201.191 225.498 197.794V197.779H240.903V196.043C240.903 188.299 236.25 184.471 230.269 184.471C223.613 184.471 219.298 189.233 219.298 196.265C219.298 203.491 223.554 208.001 230.52 208.001ZM225.498 193.862C225.631 191.266 227.589 189.189 230.373 189.189C233.098 189.189 234.983 191.147 234.997 193.862H225.498Z" fill="#F8F8F8"/>
<path d="M251.271 177.172H244.997V207.556H251.271V177.172Z" fill="#F8F8F8"/>
<path d="M256.297 207.556H262.571V184.768H256.297V207.556ZM259.449 181.83C261.318 181.83 262.851 180.391 262.851 178.626C262.851 176.875 261.318 175.436 259.449 175.436C257.593 175.436 256.062 176.875 256.062 178.626C256.062 180.391 257.593 181.83 259.449 181.83Z" fill="#F8F8F8"/>
<path d="M273.871 194.381C273.884 191.444 275.623 189.723 278.156 189.723C280.674 189.723 282.191 191.384 282.177 194.174V207.556H288.45V193.046C288.45 187.735 285.359 184.471 280.645 184.471C277.287 184.471 274.857 186.133 273.841 188.788H273.575V184.768H267.596V207.556H273.871V194.381Z" fill="#F8F8F8"/>
<path d="M303.588 216.576C310.052 216.576 314.647 213.609 314.647 207.778V184.768H308.418V188.595H308.183C307.343 186.741 305.501 184.471 301.716 184.471C296.753 184.471 292.556 188.358 292.556 196.117C292.556 203.698 296.636 207.229 301.732 207.229C305.34 207.229 307.357 205.404 308.183 203.52H308.447V207.689C308.447 210.819 306.458 212.036 303.735 212.036C300.965 212.036 299.567 210.819 299.052 209.44L293.249 210.226C293.999 213.816 297.489 216.576 303.588 216.576ZM303.719 202.482C300.641 202.482 298.962 200.019 298.962 196.087C298.962 192.215 300.612 189.5 303.719 189.5C306.767 189.5 308.476 192.097 308.476 196.087C308.476 200.108 306.738 202.482 303.719 202.482Z" fill="#F8F8F8"/>
<path d="M327.803 207.941C329.688 207.941 331.323 206.354 331.336 204.381C331.323 202.437 329.688 200.85 327.803 200.85C325.859 200.85 324.253 202.437 324.269 204.381C324.253 206.354 325.859 207.941 327.803 207.941Z" fill="#FF57B2"/>
<path d="M146.292 121L129 141L146.292 160.997L150.38 154.604L138.728 140.997L150.38 127.389L146.292 121ZM153.859 160.519H161.448L173.513 121.368H165.92L153.859 160.519ZM181.708 121L177.62 127.393L189.272 141L177.62 154.607L181.708 161L199 141.003L181.708 121Z" fill="#FF57B2"/>
</g>
<defs>
<filter id="filter0_f_27_119" x="-47" y="-41" width="438" height="432" filterUnits="userSpaceOnUse" color-interpolation-filters="sRGB">
<feFlood flood-opacity="0" result="BackgroundImageFix"/>
<feBlend mode="normal" in="SourceGraphic" in2="BackgroundImageFix" result="shape"/>
<feGaussianBlur stdDeviation="13" result="effect1_foregroundBlur_27_119"/>
</filter>
<clipPath id="clip0_27_119">
<rect width="350" height="350" fill="white"/>
</clipPath>
</defs>
</svg>
