<svg width="350" height="350" viewBox="0 0 350 350" fill="none" xmlns="http://www.w3.org/2000/svg">
<g clip-path="url(#clip0_117_17)">
<rect width="350" height="350" fill="#273FAD"/>
<g filter="url(#filter0_f_117_17)">
<rect x="-7.5" y="-7.5" width="365" height="365" stroke="#010A07" stroke-width="15"/>
</g>
<path d="M101.965 201C101.125 201 100.483 200.79 100.04 200.37C99.5967 199.927 99.375 199.285 99.375 198.445V159.49H85.375C84.535 159.49 83.8933 159.28 83.45 158.86C83.0067 158.417 82.785 157.775 82.785 156.935C82.785 156.095 83.0067 155.453 83.45 155.01C83.8933 154.567 84.535 154.345 85.375 154.345H118.555C119.395 154.345 120.025 154.567 120.445 155.01C120.888 155.453 121.11 156.095 121.11 156.935C121.11 157.775 120.888 158.417 120.445 158.86C120.025 159.28 119.395 159.49 118.555 159.49H104.52V198.445C104.52 199.238 104.298 199.868 103.855 200.335C103.412 200.778 102.782 201 101.965 201ZM134.15 201C129.6 201 126.228 199.915 124.035 197.745C121.865 195.575 120.78 192.227 120.78 187.7V179.65C120.78 175.053 121.865 171.682 124.035 169.535C126.228 167.365 129.6 166.292 134.15 166.315H139.89C144.44 166.315 147.8 167.4 149.97 169.57C152.14 171.74 153.225 175.1 153.225 179.65V187.63C153.225 192.18 152.14 195.552 149.97 197.745C147.8 199.915 144.44 201 139.89 201H134.15ZM125.925 187.7C125.925 190.803 126.508 192.938 127.675 194.105C128.841 195.272 131 195.855 134.15 195.855H139.89C143.04 195.855 145.186 195.272 146.33 194.105C147.496 192.938 148.08 190.78 148.08 187.63V179.65C148.08 176.5 147.496 174.353 146.33 173.21C145.186 172.043 143.04 171.46 139.89 171.46H134.15C132.05 171.46 130.405 171.705 129.215 172.195C128.025 172.685 127.173 173.525 126.66 174.715C126.17 175.905 125.925 177.55 125.925 179.65V187.7ZM198.271 201C193.721 201 190.349 199.915 188.156 197.745C185.986 195.552 184.901 192.18 184.901 187.63V179.65C184.901 175.1 185.986 171.74 188.156 169.57C190.349 167.4 193.721 166.315 198.271 166.315H212.201V154.52C212.201 152.817 213.064 151.965 214.791 151.965C216.494 151.965 217.346 152.817 217.346 154.52V198.41C217.346 200.137 216.494 201 214.791 201C213.064 201 212.201 200.137 212.201 198.41V197.08C211.127 198.363 209.681 199.343 207.861 200.02C206.041 200.673 203.731 201 200.931 201H198.271ZM198.271 195.855H200.931C204.197 195.855 206.892 195.4 209.016 194.49C211.139 193.58 212.201 192.192 212.201 190.325V171.46H198.271C195.121 171.46 192.962 172.055 191.796 173.245C190.629 174.412 190.046 176.547 190.046 179.65V187.63C190.046 190.78 190.629 192.938 191.796 194.105C192.986 195.272 195.144 195.855 198.271 195.855ZM242.704 201C238.154 201 234.783 199.915 232.589 197.745C230.419 195.575 229.334 192.227 229.334 187.7V179.65C229.334 175.053 230.419 171.682 232.589 169.535C234.783 167.365 238.154 166.292 242.704 166.315H248.444C252.994 166.315 256.354 167.4 258.524 169.57C260.694 171.74 261.779 175.1 261.779 179.65V187.63C261.779 192.18 260.694 195.552 258.524 197.745C256.354 199.915 252.994 201 248.444 201H242.704ZM234.479 187.7C234.479 190.803 235.063 192.938 236.229 194.105C237.396 195.272 239.554 195.855 242.704 195.855H248.444C251.594 195.855 253.741 195.272 254.884 194.105C256.051 192.938 256.634 190.78 256.634 187.63V179.65C256.634 176.5 256.051 174.353 254.884 173.21C253.741 172.043 251.594 171.46 248.444 171.46H242.704C240.604 171.46 238.959 171.705 237.769 172.195C236.579 172.685 235.728 173.525 235.214 174.715C234.724 175.905 234.479 177.55 234.479 179.65V187.7Z" fill="white"/>
</g>
<defs>
<filter id="filter0_f_117_17" x="-41" y="-41" width="432" height="432" filterUnits="userSpaceOnUse" color-interpolation-filters="sRGB">
<feFlood flood-opacity="0" result="BackgroundImageFix"/>
<feBlend mode="normal" in="SourceGraphic" in2="BackgroundImageFix" result="shape"/>
<feGaussianBlur stdDeviation="13" result="effect1_foregroundBlur_117_17"/>
</filter>
<clipPath id="clip0_117_17">
<rect width="350" height="350" fill="white"/>
</clipPath>
</defs>
</svg>
