<svg width="350" height="350" viewBox="0 0 350 350" fill="none" xmlns="http://www.w3.org/2000/svg">
<g clip-path="url(#clip0_27_119)">
<rect width="350" height="350" fill="#1F2229"/>
<path d="M83.992 152.392L71.064 197H64.536L54.168 161.096L43.416 197L36.952 197.064L24.472 152.392H30.68L40.408 190.216L51.16 152.392H57.688L67.928 190.088L77.72 152.392H83.992ZM88.1895 179.336C88.1895 175.752 88.9148 172.616 90.3655 169.928C91.8162 167.197 93.8002 165.085 96.3175 163.592C98.8775 162.099 101.715 161.352 104.83 161.352C107.902 161.352 110.568 162.013 112.83 163.336C115.091 164.659 116.776 166.323 117.886 168.328V161.928H123.774V197H117.886V190.472C116.734 192.52 115.006 194.227 112.702 195.592C110.44 196.915 107.795 197.576 104.766 197.576C101.651 197.576 98.8348 196.808 96.3175 195.272C93.8002 193.736 91.8162 191.581 90.3655 188.808C88.9148 186.035 88.1895 182.877 88.1895 179.336ZM117.886 179.4C117.886 176.755 117.352 174.451 116.286 172.488C115.219 170.525 113.768 169.032 111.934 168.008C110.142 166.941 108.158 166.408 105.982 166.408C103.806 166.408 101.822 166.92 100.03 167.944C98.2375 168.968 96.8082 170.461 95.7415 172.424C94.6748 174.387 94.1415 176.691 94.1415 179.336C94.1415 182.024 94.6748 184.371 95.7415 186.376C96.8082 188.339 98.2375 189.853 100.03 190.92C101.822 191.944 103.806 192.456 105.982 192.456C108.158 192.456 110.142 191.944 111.934 190.92C113.768 189.853 115.219 188.339 116.286 186.376C117.352 184.371 117.886 182.045 117.886 179.4ZM140.72 166.728V187.4C140.72 189.107 141.082 190.323 141.808 191.048C142.533 191.731 143.792 192.072 145.583 192.072H149.872V197H144.624C141.381 197 138.949 196.253 137.328 194.76C135.706 193.267 134.896 190.813 134.896 187.4V166.728H130.352V161.928H134.896V153.096H140.72V161.928H149.872V166.728H140.72ZM154.752 179.4C154.752 175.773 155.477 172.616 156.928 169.928C158.379 167.197 160.384 165.085 162.944 163.592C165.547 162.099 168.512 161.352 171.84 161.352C176.149 161.352 179.691 162.397 182.464 164.488C185.28 166.579 187.136 169.48 188.032 173.192H181.76C181.163 171.059 179.989 169.373 178.24 168.136C176.533 166.899 174.4 166.28 171.84 166.28C168.512 166.28 165.824 167.432 163.776 169.736C161.728 171.997 160.704 175.219 160.704 179.4C160.704 183.624 161.728 186.888 163.776 189.192C165.824 191.496 168.512 192.648 171.84 192.648C174.4 192.648 176.533 192.051 178.24 190.856C179.947 189.661 181.12 187.955 181.76 185.736H188.032C187.093 189.32 185.216 192.2 182.4 194.376C179.584 196.509 176.064 197.576 171.84 197.576C168.512 197.576 165.547 196.829 162.944 195.336C160.384 193.843 158.379 191.731 156.928 189C155.477 186.269 154.752 183.069 154.752 179.4ZM213.211 161.288C215.856 161.288 218.246 161.864 220.379 163.016C222.512 164.125 224.176 165.811 225.371 168.072C226.608 170.333 227.227 173.085 227.227 176.328V197H221.467V177.16C221.467 173.661 220.592 170.995 218.843 169.16C217.094 167.283 214.704 166.344 211.675 166.344C208.603 166.344 206.15 167.304 204.315 169.224C202.523 171.144 201.627 173.939 201.627 177.608V197H195.803V149.64H201.627V166.92C202.779 165.128 204.358 163.741 206.363 162.76C208.411 161.779 210.694 161.288 213.211 161.288Z" fill="#FAE800"/>
<path d="M282.176 152.712V197H276.352V163.976L261.632 197H257.536L242.752 163.912V197H236.928V152.712H243.2L259.584 189.32L275.968 152.712H282.176ZM324.053 178.12C324.053 179.229 323.989 180.403 323.861 181.64H295.829C296.042 185.096 297.216 187.805 299.349 189.768C301.525 191.688 304.149 192.648 307.221 192.648C309.738 192.648 311.829 192.072 313.493 190.92C315.2 189.725 316.394 188.147 317.077 186.184H323.349C322.41 189.555 320.533 192.307 317.717 194.44C314.901 196.531 311.402 197.576 307.221 197.576C303.893 197.576 300.906 196.829 298.261 195.336C295.658 193.843 293.61 191.731 292.117 189C290.624 186.227 289.877 183.027 289.877 179.4C289.877 175.773 290.602 172.595 292.053 169.864C293.504 167.133 295.53 165.043 298.133 163.592C300.778 162.099 303.808 161.352 307.221 161.352C310.549 161.352 313.493 162.077 316.053 163.528C318.613 164.979 320.576 166.984 321.941 169.544C323.349 172.061 324.053 174.92 324.053 178.12ZM318.037 176.904C318.037 174.685 317.546 172.787 316.565 171.208C315.584 169.587 314.24 168.371 312.533 167.56C310.869 166.707 309.013 166.28 306.965 166.28C304.021 166.28 301.504 167.219 299.413 169.096C297.365 170.973 296.192 173.576 295.893 176.904H318.037Z" fill="white"/>
<g filter="url(#filter0_f_27_119)">
<rect x="-13.5" y="-7.5" width="371" height="365" stroke="#0D0E11" stroke-width="15"/>
</g>
</g>
<defs>
<filter id="filter0_f_27_119" x="-47" y="-41" width="438" height="432" filterUnits="userSpaceOnUse" color-interpolation-filters="sRGB">
<feFlood flood-opacity="0" result="BackgroundImageFix"/>
<feBlend mode="normal" in="SourceGraphic" in2="BackgroundImageFix" result="shape"/>
<feGaussianBlur stdDeviation="13" result="effect1_foregroundBlur_27_119"/>
</filter>
<clipPath id="clip0_27_119">
<rect width="350" height="350" fill="white"/>
</clipPath>
</defs>
</svg>
